<?xml version="1.0" standalone="no"?>
<!DOCTYPE svg PUBLIC "-//W3C//DTD SVG 20010904//EN"
 "http://www.w3.org/TR/2001/REC-SVG-20010904/DTD/svg10.dtd">
<svg version="1.0" xmlns="http://www.w3.org/2000/svg"
 width="52.000000pt" height="51.000000pt" viewBox="0 0 52.000000 51.000000"
 preserveAspectRatio="xMidYMid meet">
<metadata>
Created by potrace 1.16, written by Peter Selinger 2001-2019
</metadata>
<g transform="translate(0.000000,51.000000) scale(0.100000,-0.100000)"
fill="#000000" stroke="none">
<path d="M137 424 c-82 -41 -107 -59 -107 -74 0 -19 7 -20 230 -20 223 0 230
1 230 20 0 15 -25 33 -110 75 -60 30 -115 55 -122 54 -7 0 -61 -25 -121 -55z"/>
<path d="M30 50 l0 -30 228 2 227 3 3 28 3 27 -230 0 -231 0 0 -30z"/>
</g>
</svg>
